<svg xmlns="http://www.w3.org/2000/svg" xmlns:xlink="http://www.w3.org/1999/xlink" version="1.1" x="0px" y="0px" viewBox="0 0 100 125" style="enable-background:new 0 0 100 100;" xml:space="preserve"><rect x="22.8" y="82.7" width="2" height="2.9"/><rect x="22.8" y="28.7" width="2" height="5.4"/><rect x="22.8" y="50.3" width="2" height="5.4"/><rect x="22.8" y="17.9" width="2" height="5.4"/><rect x="22.8" y="71.9" width="2" height="5.4"/><rect x="22.8" y="61.1" width="2" height="5.4"/><rect x="22.8" y="39.5" width="2" height="5.4"/><polygon points="22.8,12.5 24.8,12.5 24.8,10.5 26.7,10.5 26.7,8.5 22.8,8.5 "/><rect x="32.1" y="8.5" width="5.4" height="2"/><rect x="42.9" y="8.5" width="5.4" height="2"/><rect x="53.6" y="8.5" width="5.4" height="2"/><rect x="64.4" y="8.5" width="5.4" height="2"/><polygon points="75.1,8.5 75.1,10.5 77.1,10.5 77.1,12.5 79,12.5 79,8.5 "/><rect x="77.1" y="39.5" width="2" height="5.4"/><rect x="77.1" y="28.7" width="2" height="5.4"/><rect x="77.1" y="50.3" width="2" height="5.4"/><rect x="77.1" y="17.9" width="2" height="5.4"/><rect x="77.1" y="61.1" width="2" height="5.4"/><rect x="77.1" y="71.9" width="2" height="5.4"/><rect x="77.1" y="82.7" width="2" height="2.9"/><path d="M71.3,59.7c-0.3-0.2-0.8-0.1-1,0.2l-1.9,3V29.7c0-0.1-0.6-8.4-9.3-10.2c0,0-0.1,0-0.1,0c0,0-0.1,0-0.1,0H42.7  c0,0-0.1,0-0.1,0c0,0-0.3,0.1-0.7,0.2c-0.3,0.1-0.7,0.2-1.2,0.4c-2.7,1-7.1,3.5-7,9c0.1,5.8,0.1,26.8,0,34.4l-2.6-3.5  c-0.2-0.3-0.7-0.4-1-0.1c-0.3,0.2-0.4,0.7-0.1,1l3.8,5v14.3c0,0,0,0.1,0,0.1c0,0.1,1.6,9.6,16.4,9.8h0.3c14.4,0,17.8-9.1,18-9.5  c0-0.1,0-0.2,0-0.2V65.8l3.1-5C71.8,60.4,71.7,60,71.3,59.7z M65.1,24.8c-0.8,0.1-2.1,0.1-3.3-0.7c-0.9-0.6-1.6-1.6-1.9-3  C62.4,21.9,64,23.3,65.1,24.8z M51.1,24.8C59,25.6,61.9,29,62,29.1c0.1,0.1,0.2,0.3,0.2,0.5v11.9c0,0.2-0.1,0.4-0.3,0.6  c-0.2,0.1-0.4,0.2-0.6,0.1c-0.1,0-13.1-2.7-21.5,0c-0.1,0-0.2,0-0.2,0c-0.2,0-0.3,0-0.4-0.1c-0.2-0.1-0.3-0.4-0.3-0.6V29.6  c0-0.2,0.1-0.3,0.2-0.5C39.2,28.9,43.1,23.9,51.1,24.8z M40.5,21.6C40.3,23,39.7,24,39,24.5c-0.9,0.6-2,0.5-2.6,0.4  C37.5,23.2,39.1,22.2,40.5,21.6z M39,85.6c-3.1-2.3-3.8-5.1-3.8-5.5v-1c0.9,0.3,2.4,1,3.3,2.3C39.2,82.5,39.4,83.9,39,85.6z   M50.1,76.6c-10.3,0-13.5-6.8-13.6-7.1c-0.1-0.1-0.1-0.3-0.1-0.5L39,56.6c0-0.2,0.2-0.4,0.4-0.5c0.2-0.1,0.4-0.1,0.6,0  c0.1,0,9.6,3.8,22.5,0c0.2-0.1,0.4,0,0.6,0.1c0.2,0.1,0.3,0.3,0.3,0.5l1.9,12.9c0,0.1,0,0.3-0.1,0.4c-0.1,0.2-3,6.1-14,6.6  C50.9,76.6,50.5,76.6,50.1,76.6z M66.9,80.1c-0.2,0.6-1.5,3.3-4.9,5.5c-0.6-5.8,4.6-6.7,4.8-6.7c0,0,0.1,0,0.1,0V80.1z"/><text x="0" y="115" fill="#000000" font-size="5px" font-weight="bold" font-family="'Helvetica Neue', Helvetica, Arial-Unicode, Arial, Sans-serif">Created by Megan Chown</text><text x="0" y="120" fill="#000000" font-size="5px" font-weight="bold" font-family="'Helvetica Neue', Helvetica, Arial-Unicode, Arial, Sans-serif">from the Noun Project</text></svg>