<?xml version="1.0" encoding="utf-8"?>
<!-- Svg Vector Icons : http://www.onlinewebfonts.com/icon -->
<!DOCTYPE svg PUBLIC "-//W3C//DTD SVG 1.1//EN" "http://www.w3.org/Graphics/SVG/1.1/DTD/svg11.dtd">
<svg version="1.1" xmlns="http://www.w3.org/2000/svg" xmlns:xlink="http://www.w3.org/1999/xlink" x="0px" y="0px" viewBox="0 0 256 256" enable-background="new 0 0 256 256" xml:space="preserve">
<metadata> Svg Vector Icons : http://www.onlinewebfonts.com/icon </metadata>
<g><g><path fill="#000000" d="M128,10C62.8,10,10,62.8,10,128c0,65.2,52.8,118,118,118c65.2,0,118-52.8,118-118C246,62.8,193.2,10,128,10L128,10L128,10z M191.7,97.8l-79.8,79.8c-1.6,1.6-4.3,1.4-6.1-0.4l-5.3-5.3l0,0l-35.8-35.7c-1.8-1.8-1.8-4.7,0-6.5l9.7-9.7c1.8-1.8,4.7-1.8,6.5,0L109,148l66.4-66.4c1.6-1.6,4.3-1.4,6.1,0.4l9.7,9.7C193,93.5,193.2,96.3,191.7,97.8L191.7,97.8L191.7,97.8z"/></g></g>
</svg>