<svg xmlns="http://www.w3.org/2000/svg" xmlns:xlink="http://www.w3.org/1999/xlink" version="1.1" x="0px" y="0px" viewBox="0 0 100 125" style="enable-background:new 0 0 100 100;" xml:space="preserve"><path d="M65.9,88.6H36.35c-0.63,0-1.13-0.51-1.13-1.13V57.92c0-0.63,0.51-1.13,1.13-1.13H65.9c0.63,0,1.13,0.51,1.13,1.13v29.55  C67.03,88.1,66.53,88.6,65.9,88.6z M37.49,86.34h27.28V59.06H37.49V86.34z"/><g><rect x="22.28" y="85.88" width="1.97" height="2.96"/><path d="M24.26,80.42h-1.97v-5.46h1.97V80.42z M24.26,69.5h-1.97v-5.46h1.97V69.5z M24.26,58.58h-1.97v-5.46h1.97V58.58z    M24.26,47.66h-1.97V42.2h1.97V47.66z M24.26,36.74h-1.97v-5.46h1.97V36.74z M24.26,25.82h-1.97v-5.46h1.97V25.82z"/><polygon points="24.26,14.9 22.28,14.9 22.28,10.95 26.23,10.95 26.23,12.93 24.26,12.93  "/><path d="M69.66,12.93h-5.43v-1.97h5.43V12.93z M58.8,12.93h-5.43v-1.97h5.43V12.93z M47.95,12.93h-5.43v-1.97h5.43V12.93z    M37.09,12.93h-5.43v-1.97h5.43V12.93z"/><polygon points="79.04,14.9 77.06,14.9 77.06,12.93 75.09,12.93 75.09,10.95 79.04,10.95  "/><path d="M79.04,80.42h-1.97v-5.46h1.97V80.42z M79.04,69.5h-1.97v-5.46h1.97V69.5z M79.04,58.58h-1.97v-5.46h1.97V58.58z    M79.04,47.66h-1.97V42.2h1.97V47.66z M79.04,36.74h-1.97v-5.46h1.97V36.74z M79.04,25.82h-1.97v-5.46h1.97V25.82z"/><rect x="77.06" y="85.88" width="1.97" height="2.96"/></g><path d="M47.44,81.57c-0.55,0-0.99-0.44-0.99-0.99V65.92c0-0.27,0.12-0.55,0.32-0.73c0.35-0.33,0.61-0.43,3.72-0.32l0.2,0.01  c1.48,0.03,5.99,0.1,5.99,5.18c0,1.35-0.5,2.5-1.45,3.32c-1.92,1.67-5.28,1.67-6.81,1.56v5.65C48.43,81.12,47.99,81.57,47.44,81.57z   M48.43,72.95c1.45,0.11,4.19,0.08,5.51-1.07c0.52-0.45,0.77-1.05,0.77-1.83c0-2.31-1.06-3.15-4.06-3.2l-0.23-0.01  c-0.98-0.03-1.6-0.03-2-0.04V72.95z"/><text x="0" y="115" fill="#000000" font-size="5px" font-weight="bold" font-family="'Helvetica Neue', Helvetica, Arial-Unicode, Arial, Sans-serif">Created by Megan Chown</text><text x="0" y="120" fill="#000000" font-size="5px" font-weight="bold" font-family="'Helvetica Neue', Helvetica, Arial-Unicode, Arial, Sans-serif">from the Noun Project</text></svg>